<svg width="30" height="30" viewBox="0 0 30 30" fill="none" xmlns="http://www.w3.org/2000/svg">
<path opacity="0.3" d="M2.625 12.5C3.75 7 8.37497 2.875 14 2.5L11 5.49999L13.875 8.75C12 9.125 10.375 10.25 9.5 12L5.62499 15.5L2.625 12.5ZM24.125 14.375L20.5 17.5C19.625 19.375 18 20.75 15.875 21.125L18.75 24.375L15.75 27.375C21.375 27 26 22.75 27.125 17.375L24.125 14.375Z" fill="#1B3554"/>
<path d="M17.25 2.62497C22.75 3.74997 26.875 8.37498 27.25 14L24.25 11L21 13.75C20.625 11.75 19.375 10.125 17.5 9.24997L14.25 5.49997L17.25 2.62497ZM15.375 24.25L12.125 20.5C10.375 19.625 9.125 18 8.75 16L5.49999 18.875L2.5 15.875C2.875 21.5 7.125 26.125 12.5 27.25L15.375 24.25Z" fill="#1B3554"/>
</svg>
