<svg width="20" height="20" viewBox="0 0 20 20" fill="none" xmlns="http://www.w3.org/2000/svg">
<path opacity="0.3" d="M9.16675 5.41667C9.16675 7.50001 7.50008 9.16667 5.41675 9.16667C3.33341 9.16667 1.66675 7.50001 1.66675 5.41667C1.66675 3.33334 3.33341 1.66667 5.41675 1.66667C7.50008 1.66667 9.16675 3.33334 9.16675 5.41667ZM14.5834 1.66667C12.5001 1.66667 10.8334 3.33334 10.8334 5.41667C10.8334 7.50001 12.5001 9.16667 14.5834 9.16667C16.6667 9.16667 18.3334 7.50001 18.3334 5.41667C18.3334 3.33334 16.6667 1.66667 14.5834 1.66667ZM5.41675 10.8333C3.33341 10.8333 1.66675 12.5 1.66675 14.5833C1.66675 16.6667 3.33341 18.3333 5.41675 18.3333C7.50008 18.3333 9.16675 16.6667 9.16675 14.5833C9.16675 12.5 7.50008 10.8333 5.41675 10.8333ZM14.5834 10.8333C12.5001 10.8333 10.8334 12.5 10.8334 14.5833C10.8334 16.6667 12.5001 18.3333 14.5834 18.3333C16.6667 18.3333 18.3334 16.6667 18.3334 14.5833C18.3334 12.5 16.6667 10.8333 14.5834 10.8333Z" fill="#A1A5B7"/>
<path d="M14.5835 13.3333C14.5835 13.3333 14.5002 13.3333 14.5835 13.3333L13.9168 12.7499C13.4168 12.2499 13.0835 11.5832 13.0002 10.9166C12.9168 10.3332 12.9168 9.66659 13.0002 8.99992C13.0835 8.33325 13.4168 7.66658 13.9168 7.16658L14.5002 6.58328H14.5835C15.2502 6.58328 15.8335 5.99995 15.8335 5.33328C15.8335 4.66662 15.2502 4.08328 14.5835 4.08328C13.9168 4.08328 13.3335 4.66662 13.3335 5.33328V5.4166L12.7502 5.99994C12.2502 6.49994 11.5835 6.83325 10.9168 6.91659C10.3335 6.99992 9.66682 6.99992 9.00016 6.91659C8.33349 6.83325 7.66684 6.49994 7.16684 5.99994L6.5835 5.4166V5.33328C6.5835 4.66662 6.00016 4.08328 5.3335 4.08328C4.66683 4.08328 4.0835 4.66662 4.0835 5.33328C4.0835 5.99995 4.66683 6.58328 5.3335 6.58328H5.41683L6.00018 7.16658C6.50018 7.66658 6.83349 8.33325 6.91682 8.99992C7.00016 9.58325 7.00016 10.2499 6.91682 10.9166C6.83349 11.5832 6.50018 12.2499 6.00018 12.7499L5.41683 13.3333H5.3335C4.66683 13.3333 4.0835 13.9166 4.0835 14.5833C4.0835 15.2499 4.66683 15.8333 5.3335 15.8333C6.00016 15.8333 6.5835 15.2499 6.5835 14.5833V14.4999L7.16684 13.9166C7.66684 13.4166 8.33349 13.0832 9.00016 12.9999C9.58349 12.9166 10.2502 12.9166 10.9168 12.9999C11.5835 13.0832 12.2502 13.4166 12.7502 13.9166L13.3335 14.4999V14.5833C13.3335 15.2499 13.9168 15.8333 14.5835 15.8333C15.2502 15.8333 15.8335 15.2499 15.8335 14.5833C15.8335 13.9166 15.2502 13.3333 14.5835 13.3333Z" fill="#A1A5B7"/>
</svg>
