<svg width="30" height="30" viewBox="0 0 30 30" fill="none" xmlns="http://www.w3.org/2000/svg">
<path d="M5.06785 18.9977C10.4316 9.71022 16.9728 4.07897 26.1603 2.51772C26.3411 2.48546 26.5271 2.49737 26.7023 2.55242C26.8775 2.60747 27.0368 2.70403 27.1667 2.8339C27.2965 2.96376 27.3931 3.12308 27.4481 3.29829C27.5032 3.4735 27.5151 3.65942 27.4828 3.84022C25.9216 13.0277 20.2903 19.569 11.0028 24.9327L5.06785 18.9977ZM4.7741 21.6715L3.2916 25.5602C3.23039 25.7207 3.21692 25.8954 3.2528 26.0634C3.28868 26.2313 3.37239 26.3853 3.49383 26.5067C3.61527 26.6282 3.76925 26.7119 3.93719 26.7478C4.10514 26.7837 4.27988 26.7702 4.44034 26.709L8.3316 25.2252L4.7741 21.6715ZM20.6253 7.49772C20.2545 7.49772 19.892 7.60769 19.5837 7.81371C19.2753 8.01974 19.035 8.31258 18.8931 8.65519C18.7512 8.9978 18.714 9.3748 18.7864 9.73851C18.8587 10.1022 19.0373 10.4363 19.2995 10.6985C19.5617 10.9608 19.8958 11.1393 20.2596 11.2117C20.6233 11.284 21.0003 11.2469 21.3429 11.105C21.6855 10.9631 21.9783 10.7228 22.1844 10.4144C22.3904 10.1061 22.5003 9.74356 22.5003 9.37272C22.5003 8.87544 22.3028 8.39853 21.9512 8.04689C21.5995 7.69526 21.1226 7.49772 20.6253 7.49772Z" fill="#00B9F2"/>
<path d="M5.06779 18.9977L2.80904 16.7389C2.69381 16.6237 2.60684 16.4834 2.55494 16.3289C2.50304 16.1745 2.48763 16.0101 2.50991 15.8487C2.53219 15.6872 2.59156 15.5332 2.68336 15.3986C2.77517 15.2639 2.8969 15.1524 3.03904 15.0727L11.4415 10.3615C8.96691 12.9646 6.82588 15.8657 5.06779 18.9977V18.9977ZM11.0003 24.9302L13.259 27.189C13.3743 27.3042 13.5146 27.3912 13.6691 27.443C13.8235 27.4949 13.9879 27.5104 14.1493 27.4881C14.3107 27.4658 14.4648 27.4064 14.5994 27.3146C14.7341 27.2228 14.8456 27.1011 14.9253 26.959L19.6365 18.5552C17.0337 21.0306 14.1326 23.1721 11.0003 24.9302V24.9302ZM8.80029 22.729L15.729 15.8002C15.9226 15.5948 16.0285 15.3221 16.0243 15.04C16.0202 14.7578 15.9062 14.4884 15.7067 14.2888C15.5071 14.0893 15.2377 13.9753 14.9555 13.9711C14.6733 13.967 14.4006 14.0729 14.1953 14.2665L7.26654 21.1952L8.80029 22.729Z" fill="#1B3554"/>
</svg>
